<svg width="50" height="50" viewBox="0 0 50 50" fill="none" xmlns="http://www.w3.org/2000/svg">
<g clip-path="url(#clip0)">
<path d="M31.8658 49.9981H1.8292C0.818945 49.9981 0 49.179 0 48.1689V1.82921C0 0.818955 0.818945 1.00136e-05 1.8292 1.00136e-05H48.1688C49.1791 1.00136e-05 49.998 0.818955 49.998 1.82921V31.8658C49.998 32.3509 49.8054 32.8161 49.4622 33.1593L33.1593 49.4623C32.8163 49.8053 32.3511 49.9981 31.8658 49.9981Z" fill="#FFDA79"/>
<path d="M48.1688 0.000752926H24.999V49.9988H31.8658C32.3511 49.9988 32.8163 49.8061 33.1593 49.463L49.4622 33.16C49.8053 32.817 49.998 32.3517 49.998 31.8666V1.82995C49.998 0.819698 49.1791 0.000752926 48.1688 0.000752926Z" fill="#FFD155"/>
<path d="M38.4726 15.3364H11.5255C10.5153 15.3364 9.69629 14.5175 9.69629 13.5072C9.69629 12.4971 10.5152 11.678 11.5255 11.678H38.4727C39.4828 11.678 40.3019 12.497 40.3019 13.5072C40.3019 14.5175 39.4828 15.3364 38.4726 15.3364Z" fill="#FFD155"/>
<path d="M38.4726 25.0565H11.5255C10.5153 25.0565 9.69629 24.2375 9.69629 23.2272C9.69629 22.2171 10.5152 21.398 11.5255 21.398H38.4727C39.4828 21.398 40.3019 22.217 40.3019 23.2272C40.3019 24.2375 39.4828 25.0565 38.4726 25.0565Z" fill="#FFD155"/>
<path d="M31.8657 49.999C30.8586 49.999 30.0369 49.1816 30.0369 48.1698V31.8668C30.0369 30.8565 30.8558 30.0376 31.8661 30.0376H48.169C49.7921 30.0376 50.614 32.0086 49.4623 33.1602L33.1593 49.4633C32.8095 49.8132 32.3416 49.999 31.8657 49.999Z" fill="#FFC72D"/>
<path d="M38.4726 11.678H24.999V15.3364H38.4726C39.4828 15.3364 40.3018 14.5175 40.3018 13.5072C40.3018 12.4971 39.4828 11.678 38.4726 11.678Z" fill="#FFC72D"/>
<path d="M38.4726 21.398H24.999V25.0564H38.4726C39.4828 25.0564 40.3018 24.2375 40.3018 23.2272C40.3018 22.2171 39.4828 21.398 38.4726 21.398Z" fill="#FFC72D"/>
</g>
<defs>
<clipPath id="clip0">
<rect width="50" height="50" fill="white"/>
</clipPath>
</defs>
</svg>
